<mxfile host="app.diagrams.net" modified="2022-09-26T00:31:58.571Z" agent="5.0 (Macintosh; Intel Mac OS X 10_15_7) AppleWebKit/605.1.15 (KHTML, like Gecko) Version/15.6.1 Safari/605.1.15" etag="h_fZKWl2hwU4raCAfeXe" version="20.3.6" type="github">
  <diagram id="3KwN1w3bRIJFI6S_cwh4" name="Page-1">
    <mxGraphModel dx="786" dy="1188" grid="1" gridSize="10" guides="1" tooltips="1" connect="1" arrows="1" fold="1" page="1" pageScale="1" pageWidth="850" pageHeight="1100" math="0" shadow="0">
      <root>
        <mxCell id="0" />
        <mxCell id="1" parent="0" />
        <mxCell id="5qzc2JeftQq70GEMPEHb-2" value="" style="shape=image;verticalLabelPosition=bottom;labelBackgroundColor=default;verticalAlign=top;aspect=fixed;imageAspect=0;image=data:image/png,iVBORw0KGgoAAAANSUhEUgAAAnAAAACjCAMAAAA9+NM5AAAAGXRFWHRTb2Z0d2FyZQBBZG9iZSBJbWFnZVJlYWR5ccllPAAAADBQTFRF8PDw1NTUNjY2nZ6hh4eHsLCwwsHC4eDidHV46urqz0IsAAAAY2NjdXZ44eHj////yMkEYAAAHJxJREFUeNrsnYuaqygMgDMwE53TJr7/2y5JQG3rXbB2Vr/d0461FfAnNwJAcx3XceABVxNcxwXcdVzAXcd1XMBdxwXcdVzHBdx1XMBdxwXcdVzHBdza+vDkUU2dqQbewd47rjiqhXfM1hrjhaiGP4S3Awejj7Na8rTXHAtKyuhp4VHXr6cGL/Q4dWNA76d/9fGH6wVF88h5aAtlm7l1/fhuvnTe8xuBg+XPd8NRr3v0oTheH9bybrykO0gVcfSWmO5YZRNzLAj7DKIklHxhaywXCig/yu8CDml5jaoFVaqmP9ZHP1HcyhOWMBAAx55/INxXZe5Iu4XcbjLGhQy+BTgo9Hw3PXrhLYtYGNbUwz8dWoBL1XTvT8NOLMr9NGy+refm8IP9GFUBioK3Hfzxcrzt//Hzlm0rcG/hTTkfK09JccsDnRpLPtPxii60drDkU9jT2LC1Rm/hbfjRH1AeT5CViM0VPYDWwmXb9q2yPWgadRjsc0dzXrzL7ajSAWWDY4HrP3XAcLQVXBIuC57OsL+x6MtDrPNICyeXt8DjH+YBvZ/qimsip0xVAVahK2GvMLASA675WOD6NUInRyLQzYu+8AVyLpT4hboB2/wVlqHWxOEeZ0VzerO9gvXpDjAEFnd3G36EY60zdDX4rVpk4pu+1x6ua0ii5eXaV7ZtwD3czzs542hxH9aKUvjWCwcDwHlaAtdIl0aHFtjLoVN5XqbqkwRyMFiVCeCGvWCfqay9+2jbM2k5esCN3WoMxB36HnbXCF38l4NyFeAqUZkpgsEmwcNnNjgFCMoZU/iKZ1BpwDHioe2O6QtSqdg2c805Clw2W2YJcPF2IE/SrQLO0cRDXR3wGQUO0/2lu48U8VOAC3Iu6EkvTeqIvNOhKTkd3vvwDJxDLX24Lqnf8Bnql+Uf+Yb0PwhflgvJySuge2mWMwMXK4YQVJcHMFmsBi5IbQ04iKNl4HWwRj9zo2KbRWwCAC+3s0aBcy49desToTubRYxo2iSxLe9AFfBI9Ou9wAWnQQSRqhIBzktR2d6jNJlpXNbPvTShDbuEaxJwrDZd+FCpDPW2PogDKnUVcNmCc9WTCT9UitauELUauhV3tlKocx2erjWH82TtQfLO2dUjlWrNULOU/ZLRnTHgoBOwcn+nndoMHJJPQ5/XGsi7wBoIcCPhiPcCJyPrHEW/QMZR7IX30HCAsTE1qrCBak0VXD3gjCuRkD6YXCIuvYH3Cly1Bjivx1E2nLhD0WE3ylrgnBm68sT1mXJ4x3qS9dyoDSdWvkQBgi0qI+duFIEFwHEHnJrQzic1azoliT59p+U8sUqVSmAPOLL3SmMCTjiieEvRdj3grGYBMKf4evsx2i3h7PAHARcMUbkdvgAXHzVqiyTrKJ5UHsdtONHFjxEpNxcJGAMOXdX39KKCjWDFwnrXFtZ/FHC1vudWpaod47hrcbvwVcJpZTkXcNlUKi9QqTHQ5ZLM6oCLBRGd5k3qOvcgAOuJhwr4HCNwBDkkHLXsESVtED7otdopgfMTEk55aiWcuBVRaicJZ3bdsw0nr6Mq9bxOQzLrpZZSyaolKrYRqKUbs/segKNVD5XdZE8at+H8gw3n+8D5WC7qJMgnqlQy5zMCx5E1c0gbMUfkAtf3UjUqDK2Ewxf/7bzAkevpqyEJxyrhWmN0M3A9f3Obl8qtMWmlfsAsRXfwPMA92O2Q3mucLfzThdbAomqMDccuZtxFOx7kX70gxuEAenG49AOfE4fz8XbUAofmucSeFi7AVKbOatoE3PA3JtyqiLjvkfdow1Wmb71LgjCCeA4Jt3EojajAoz+RSlXrDXwrPkRUWySRHIKE21Df2jW7gOMJz2F8pMGsP7axLY3FsI2LkBVRLEy5yoN2jlZmn0qlLr8VZXn+5wVOA2rRKfbyUCv9Kw7lifuqQFL0ZHvA+aHh3umHSm7L44l+O9iNKY2rWvSzdeh9eodjHvFHANfkmQG3AriMkyCXhUWC9ZBMANYQrfwL0dfEpv+2LR10V695qDzemSYfT5faI7IuvjfVE8oFyTGO73gk0PwZwJV59Pvqnxm4nMdMpcaji+vLttrWuYD7/wE3DsnasgGtDo2fGzjIquMu4J7CUbt9OiCCPwVcVx2kC7h8wMH7FNCJgONGrVIACRzqWxZ/W81Q8I5jgE1G9fHRUj05cNXJHuq41/C/Ag5kdETjm44aG8LxmqkjZ8VY0LEqYlskQmKRtFKgXxIuAVddwMXxOnQaAkMXhw9Bh0blLOnoqaSHxOQ4GcLydCxwvdHwxdnneYDrhDngfuDySrheU+AHACdztzSFXPudY4FNB+ADTcSg9kY4SzpASnFwHgkk2cu7Y4Fjt/6LeYDrctnYnQ24Xib7fJLN+4HjqBkNrRojWgYc9IEL/4emisCxJsVgQeBCT9CMblmVSEqp40w+SNmaNAfS4qAeULQ8aIGHntcG4JA1UVsKoGnlIvJr7sqgNizKkkSWco5P6zTNArfDacDKaosyhVVT3llSKazEmvvfaNQ3lY3pcWbFmVQqKnWClk/p4tD0zgL5lEsaaietxr4gcKwzJ9SSxIA3aiaOJG2Es8GoJK4121sJED0fGtgPyI4NwDm7mxQA7FfD/QHbMlhWdNAF8hlqqv7DU90eFpkvW6qtTKYgaaDQNsSxffQvTeFOjRc/OCdw0m6kAZBgz4WmFNogtqYObsZhYa8P1luNVMgUAk4dZUv7siR4IBPEkvhpWe+hwDp+Lkw2g0blFuDsblIADQeRGBdNrWeZKWZEW76S6AHsKVoZIhMQJtrE7wIuygLNIWg0YVZMHWuDaHSLgIjNZA3H5/RSbSYSY6dnZbWdOD9JqmRZmT6qrnbBP7cwPXchcEjWJU0QOPAUZ+mFfhuzv8DOkqbwmf73mOabbQYOKOpkGxZXhKMBEW+lZ00DpBRTlMls4t+DsdRNm8FJZtY+Hoqtnayd1BlYoepsoJiFjTanBlyMPcS8RfLrQ8XlJNzsL6Zk3lcxjxmBS8PofbQMOHnYbGf1aSO1BicF4IbXhlgBXHSfeneLUD0DJyn33AGH7Y0ZJVoZKhVskNF08qmx1NFFItLQfefPvQBnNlAoJ2FqPJvaxJat6EOHjH0BTiHhZn7RJqYPzu71i4b0VqtUC7yoLKtVxUZ1pmd9Gkoki+GA4+ElJzaoVLK7uTgqIE+SVTAFLc6mZCmmbRJZ5OjVToKR5F4Y756LbLgmZWdzur9NIJHfdaqWKE7pEi6l0P0n6z1LctOGvMgCIw1zX7b5JINrIC0hbr3TQBQFCaQ0drHd9axNkrMcRKqdTd2mPE4D2d24tpppkmNdxTKwesr6PFVJQWOx8YFKDSf3jjupi8smBeJYAMu4bHP/IQVUrfFioZ/LNiF/8wJXlQplo6PcwCHZ4JllwqPmtkuWF5viwxR4DlrOwjM8GKXZAhzHu3W/GpPqrQwRGk9VGuR7nECbKjU8aOo3JWB2AcFKC1T1aozc5vd7aOLUlDTyOFI2XmgHFZRw+w6eJ24tcG6ectbQYe7A72y6MSdLaia4OvhMJxpqEXCzZYtm51zgd20a99ny4cC5vMAxLXrszYBc6++XsEnCLYlN6ITjGeD8KhNuSdlmY+225CcvmERD7qOBE+IgJ3A7jr7Z8s7B+6EAyNQc74MH79dlb54w43eGuKH0wkLZIr0p7mcDbiop/GDg1g2FnzHFfP288lLpSdzOWnpnPtyQCJmy1Q8GjlctqLF/BcyjiVuxAmZGtfpOCTcA1+SqKYcDx6WBK57wOOU5rFjjN1OkBpqFa/zmNWaTJzn0QCenWR1Qtv4d4ADgkOBdxK1axTyTF8OLVzHPqc5TnQYCOzAd/TqubEdJuOL7NMBomOkN+zRocjwe3eemfIYZO/3YPSSwvNNwQJXGiHvLTjSyUvHLTjR01G4vA9JsJhJx7E40dARwZXcPM0HtB6vqx5oYyhJ3MOMdMwP+weyaKcX32lpBfybgoDhxONCzmd6zm6CngTUqS7ZAr3kHNOr8ygwH7ia4zoQ7836pL5negPXEEFZdcr/UoUHeY/ZLHfAPYH7A/MD9Uo8Y2kpye35H6GrkRDW49XP1cFKW93reEVoWmB9bwZbqkjtCDxNX7I484R8sCe2Dr4vtCM0r6c8FnG4UNrhZfT2+h309tJv90y737efOPe95j258DW/ZEXzDLu9zO9CnFPjK+bk+Vy3ZN37lnvcDd132iMf3vK/GRcJM0XXPe2h2CLi9q8vA4rIuF4K9Q2YStQIvBugmtmpTPGaPeskF6SLfbcWBA89+pM+Nd7vJHpc6Fk9Ks6Vjl6ls9Vjla1p9vOx5AYfkwx12vLpjwZWYTDOFiHCVg/cW83E3putz1YhlsPbmMBcAWeEVwqq6zpcPBmKUzV8CbqA+nscXAi19eMeH9zhYcOpMEuHDgRtJbPXuPUsiru7Pu6u/S8C96/F8MnAjq3XDhukb72ngnSL13AJuQwc8O3CjdXqPXuVjb3pyAbdllfjTAzfewm/Rq/5IATPgj55JwMEW+M8P3HgTv0WvEh34QFcP2x8rCrZYtOcHbspueoNePVCp0rkF3DZh/wHATY4OB71aHd3Ob7SQTiTgcFvP+wDgprUY08Ge42EP3dH7YF8iBrY1wycAN5MAc7RePeKpMw9pLDiPgIOt3fwTgJs11A/2Vw947ERDtiKdR8C5rUX5COBmTWWmI/v+ASKO3EAf4jeN6A2WD/4ycAtkypF6FcrfitpNJk8p4HZsRPoZwC2QKUcG5crH4si9bL2+Npe76OPYXpLPAG6RTGF3lF7F4qJmaGb30d74BG87JPzTfPK1iVLV9MfZcK5pWUscIwTgHcbUaWK+uKv2/a0lR7JX69UpsxMZomVlChwUlOuJUpjPW6yWZz9W4330LCER3FcQ6EnxlANfbckOrUZz4PlImXKM8xCMGB8bzVPOo6Z6pI+eJea7k7cWOMhExsvvY54Ja8urWd55CG3u1GPkxz460/uqRT1V+2jVnDUkspe3BFzZOZaYUaacwHkAsrljeGAfrelv8JaAKzpTe/+iCCpTaAWdhZ0HJ4H24+Yab0t1PCVvEbjCa9PsXvgjyZQV1xcVcjJyXXT9jmcBcA6PIQNvBlzp1bcy/L5bOXhX2HmAsWWcyvTRc3gMOXgz4LAubWbvXvdjfaJEYedhx4pYVTu1+mtchvZ5PoHHoBvi+SYTcMONt3B77iWX7V+hElbP6AcRcosmOGe0SxG/4vHz2zv9+7inUZRX1VTQ8GFh+vd7DN7l4U2BG1kTdmE1l1y2c9XZZUs4vIam3ePiJI8R6X3r0IwIuLu73+9O/rlXAb/7Tf7w99/bl3wlHIKhv0fe5LKbn+2j/gRjDC6X6w/j8mchJIsu27MkoywEtG2RGhFyHmYWqdlYpuEv3wNLcPtp/759Bbq+bk0E7lteI3A/7h4EITn8+p2+wxnSLsHlIg6aw5dZX2097BFGftSSi8twbTTDRprsfvc3O6TCX1+3n+/7148BV301GD+83Zv77fbt/e3ux7ZQ7Nb4PYHHwEFX5Ak6GnBV3zhJAl27mK7IBtbG9g68BCm8JD3aHsGyAST7lDEIetmzANgO3B4srCajPZO3/zRPAGeizetfqlLvBty3q8x6UwkHVTj3ewvtdJ8G7hwhuGxleJFwlqwu/8QNMxGd7XxO6OWdwI4ytiP/ol4Gwj+S7S7v5N3zQ94MXIalVMeF3PYf50USLki0306lwl2aJfwXbTgx4NTkw0ngTrWWSAmVKj64bRjsk0cQzsRJE47iUpCmCIgScKlpTP5TLuCyrMc9HgbeHExbJuF+g0kX6AKs1Har3K1qvDKorqt3wdoLGP5OAXeieQylnIbAkkpxlXDJao3ZWOHFgkL2t7SGbbHcGH4xqwNyAZdpCGRUyG3dbWEKuHvrfApLogXwZlDdb9JzvxW436BuA3Hfjr6mzN4TzWMoBlyST/qvbm2eZF7cw52blKDWAocRuGRwZAIu24YDY0Ju6xjIGHDhLt/4dcOfaPYGz1R8AzNpf24ugPdjwDUVft8CcffvST9rTwgOZPnWrAfuT6mdAS5Yat7LyOF7gNvgPwPGQ2omqxfipJDLW7Df2w/efr4CSK56Aa5y9Huj5DRgkG7ogsxzPxPA7RjTCqKCfO6Ddi+jPQAcOUsiVkWKEZ9Yc1WpE8ClRMlMwG0YEpNlp11cCVj0fuvk8eDo6sZBt7HQ5S3wFZyELxDtmUJxMZIiHpdvgWu+fu6hlW5feKPfMeB2KFSkHPLoVWbSzjHkV+BQFSj0MJMzcQ3v4B1MAhdVgM8E3IavBcBAj2RJdmlNQ0JuYwxy+Gu/wen8biy8G4TaXc05++fW/DgLPuG3RIdFv3r0dPsdG+Hyfo9CxVK7aOxNb3wBztaMkI1XnG6HwRpiA2GINfJRTQIn0RP5xhuBgw6wJ7N7QMhlBS64oyrAotSsvtp86q/OM4D7d6Wn9O3XVN23j2mVzJ3a99svwHlqYyMYFRRrvM1HPWVXW3xYLpbLrAga1WK5DEsAhzHibJV2ck/LAlYLCeJT7gEXr+2LiZdJNlmBy3p4X21WqGVzp3aFDmaHttQOgO7tfERa0kcc5gfOx4izKUdPKoG5iVHAZF5387uqaL09yAl8SgY+M3DbFWrh3QR3jYxnbj1rpJelJ/IA56MES6FAjqMhwlAy1dCZb4Ytgo+W91OA5MTAuR0KtWzp9tQ+N3AoGUGvplIe4GJgJs0oidEaos6M7LzUNnT4MsXwQXKcGTh8hwQqfYPs2SIg4R9uigIX09wcqbxzwdnrNGmnUttBoWeDkntq9bzAbVeo5fe835HBfe70pAHgqg44aVeH7CBA1gY/Oqehk3AvN+/UKm9bsbV8k/ntg/a7Crck/33PHT4OOJVwRpfE2ogCbeC69S6GgMMBzU9vkXDDfhcPmSaUHbh8+e//N+DsnYIkNqOoHwcvwCXvdHDxlaRWV9cd9MeqjU02/LWBQTfnfXbgiuS/r+lr0t1gR+u9DTgIPgGwenHgLEZIzQtwyTsdGY8k/Xg9cP/+4VwkyYZ/bBQIZT0I+6sSuQXMHpVaGQrQ7UflbPySfBilcwHgsuW/bwEutII0xCklHODQ12IusobedH4MtBGYXuSjH/ilSetbraQtwAXkpvooOo86Dq0vJAmpMmiA3nE4IQs8sVYlVET3uAY5G6/2jlLEZzVw8A/ngMuV/z5W/akZfOuAkzwBzV7QF/2L9S0Q1ZgduH+x7ca/Bgui0Mbe+MKRYsiFuvO/DcdEk9myI/rCLo736Utw3mtW01KBo0o96kAYQbwaojR2vtkCXGy28vnvY3fw/3oBCl2WJ44GIa4ELlg8lfTT8HjCi5MkJfEPUZbbXrJA3WrgrO12BpSeBu8HDbl8wMV5YGwili0JWrPYWfOkJZQQviYnDDhO1SMG/VJ46L61rMNbxuU761aMWjCEA/Lfx4H71yGnkw1iwCq8rgTOem2oDdTWeeXLQczpqNJ8xGjLMw3I7QROhNvkwpHg3DaVOtRkaCu7GXBsL05HNZnUIhAd2gPOGXDB164TcNyrcHi7qdX8AfnvM920art74MM6l18GHNRx0IAMOLBwaxqvp2B3aETspMAFi31uYYDV63HPOw09lSq61CScNZfabRE4ix/q5YE2sqfzCBzjzIpyD5JvkYTLk/8+A5zdnnA9cKHKllYVgXOhD/tH4EIPBT6pSl1yq7UrewHOuWnB+NcHaS917Of2FxFoq2vygTgNQQ8HAy74ruGMw4b8dsd+1obLl/++SKVuAq7pfVmAA52+1QEHSbse7TTkOmR2LWz52lRYJOpWfdHYE7d/eVvWBLy9QX3a4ayeeXDzsnupGfPfuV7gNCTg4gzAHnAL4nByRQBOlgUks0vkfy/Of71klaIcYZFCwMGWiXinXqygfP47LwmLRMcbJLPZrZVwEP9hMREgpchpHjdyudbbAdxwhvXLWan7hmHycwNXl85/r5aMQIuwk7RYiZ8hij0tqHzQ0NbKkAgvOit137BazAdKuJz577vHUqsPBQ774WgJNAbtLp406oQZREJW38POsm07iPFqy4iXpls/d+DUwJVe0HT7/PHmwyWcl+CzWJZKD4W/JMAooWi2ubS+HURyvvJyFsHbZcGsqNq6r851nDJ74flPOBi45oB8uGYPcNWnAqdzeoKnrBMbIIayJCrIFmKlNqavL8GoiINI4eoYrY7ArS3eVB99lC/h2Wx7/nuA+8MZvwvn2uYFjmKmR1oNwOCLMX0dHX8aRAJ6HkRKMX0QJbx+d7xqMXCemm2ZbbuW1CsrQfCNcxoWmgt5gYsLORg7GBGCBFyj0xofBpFMnqnc6wPnXTsBIquEs7nCrC8ROKS1jbxHTJUVcfDOWVtvAa69uUJjLxaOZoqDvO0gktOsEdSQdTuIlIacAhqOtmi8SeAs04hjwpGWSLOT8DBoys5L9UXnpXZ3CT2XA9wE4vEl5zDUDOr59SbKAMcyQ4wl0KPjRBhXd1eHlGIyBtmHGrIOf9UM8USnUjMrrShYbQjLgFOxivVxUuqDZt6PtaIkJjmuJEFQ3jtUH5EWZigVCotAHOrVlxSPBl0wCVDXF9HPtJIaoAa5sLt6fJBmA3Bpmeo0DKioizKvURU7rAu+7FOLe1eqndCnmdcWGbnMPEFLukGbCWVLLOGiDKXjA79l7euJ9KQu0SGYmjHXQfOT+EjgNMH9M1ZPeoohWjZF8gT1tSJ1E/UDWQJ4QYbS/wG4dNTYqtQAWlSpvChtMGfdAUusD+cLrA/32LJ9hzAAp4lcnqNZLhJuUYbS/wm4KOE04ahzGvzazLv9df+YFTDHHUKVcOL4iUq1bH1clKH014CbisOlhCTQxJ/wTk7w6h0V/d9avXwtcOKKkkm4xtZZUGdVNDq6+X3UDgQOcHgT72EhfObVk/7XwEmutujV6PjZbPHwqvoWuVDrrfwa6oxBW8lrgJELuJMAtyS7QGIfdPjyKisbXYKCtvb6gL3E9TA51QXc0cAtGV2GODH1UEtpvtEtHB2Tj4Ju5zixM9RIM0hQP7CUJdI58U/Kv9oWhyufAVQ+5eONwKEvvUEvlUnR0cQknYwSU5Kg6xWSnMQO2dcmn3U9bM1MOqQr7H4w9IeB49JbkG99PDPfS+FoSz7yOondBsqjE13ZVD2Ma7IqjY913QrcAX2U/y5wjS/bfJsbbwQ406BdONrm9rTAgSVixiVkyFnIVVLlHMXMpt3Ale6jf9WEi8ABlaze9ocz1ur4GI5G0l14G2oX9o3ABZULQJajpBkiXD0tSlJt7wvn7KOfAVyOXSInePOlunkbjmZbFCZ5qbJMTUxTEgTt8yDp6hcHdrO7WbiP1n9UwLX59phpw9/XG+zJW5gDjl2bfCSxZ81V0vVYgxL1tt2r6lrVueo8PIfotsc3mMrJOPYe/jhwkp/qs2cXSNh/j7EzC5zkJ+kCcTElycLRqFNXUlKSzM6VV00Pfo5R7wiocak+Wi636EzAKRsFdp/b9VDmZgdpll6979luf7RVsT76d3l7mMJWILtgZzLLHA77wtH7nUEssEUkFROcpwPuhKUrHXzYvaVBlbuPeqya5gLuXUfpaNSfjT5cwG01zIuKOPir4dULuHOKIE9wIXAB98QEf+RvX8eHAifT0soUkv0fTci4gNurVT1ml0Sgge7r+V/ADYuiM054u46/CpxOpj/fhLfr+LvAXccF3HVcxwXcdVzAXcd1XMBdxwXcdVzAXcd1ZD/+E2AAUXHUAARY1k0AAAAASUVORK5CYII=;" vertex="1" parent="1">
          <mxGeometry x="50" y="80" width="624" height="163" as="geometry" />
        </mxCell>
        <mxCell id="5qzc2JeftQq70GEMPEHb-6" value="&lt;font style=&quot;font-size: 20px;&quot;&gt;Student&lt;/font&gt;&lt;br&gt;&lt;div style=&quot;&quot;&gt;&lt;div style=&quot;text-align: left;&quot;&gt;&amp;nbsp;- prototype&lt;/div&gt;&lt;div style=&quot;text-align: left;&quot;&gt;&amp;nbsp;- name&lt;/div&gt;&lt;/div&gt;" style="rounded=1;whiteSpace=wrap;html=1;" vertex="1" parent="1">
          <mxGeometry x="360" y="410" width="120" height="70" as="geometry" />
        </mxCell>
        <mxCell id="5qzc2JeftQq70GEMPEHb-7" value="&lt;span style=&quot;font-size: 20px;&quot;&gt;原型对象&lt;/span&gt;&lt;br&gt;&lt;div style=&quot;text-align: left;&quot;&gt;&amp;nbsp;- constructor&lt;/div&gt;&lt;div style=&quot;&quot;&gt;&lt;div style=&quot;text-align: left;&quot;&gt;&amp;nbsp;- hello&lt;/div&gt;&lt;/div&gt;" style="rounded=1;whiteSpace=wrap;html=1;" vertex="1" parent="1">
          <mxGeometry x="360" y="530" width="120" height="70" as="geometry" />
        </mxCell>
        <mxCell id="5qzc2JeftQq70GEMPEHb-8" value="&lt;font style=&quot;font-size: 18px;&quot;&gt;PrimaryStudent&lt;/font&gt;&lt;br&gt;&lt;div style=&quot;&quot;&gt;&lt;div style=&quot;text-align: left;&quot;&gt;&amp;nbsp;- prototype&lt;/div&gt;&lt;div style=&quot;text-align: left;&quot;&gt;&amp;nbsp;- grade&lt;/div&gt;&lt;/div&gt;" style="rounded=1;whiteSpace=wrap;html=1;" vertex="1" parent="1">
          <mxGeometry x="180" y="410" width="140" height="70" as="geometry" />
        </mxCell>
        <mxCell id="5qzc2JeftQq70GEMPEHb-9" value="&lt;span style=&quot;font-size: 20px;&quot;&gt;原型对象&lt;/span&gt;&lt;br&gt;&lt;div style=&quot;text-align: left;&quot;&gt;&amp;nbsp;- constructor&lt;/div&gt;&lt;div style=&quot;&quot;&gt;&lt;div style=&quot;text-align: left;&quot;&gt;&amp;nbsp;- xxx&lt;/div&gt;&lt;/div&gt;" style="rounded=1;whiteSpace=wrap;html=1;" vertex="1" parent="1">
          <mxGeometry x="200" y="530" width="120" height="70" as="geometry" />
        </mxCell>
      </root>
    </mxGraphModel>
  </diagram>
</mxfile>
